<svg xmlns="http://www.w3.org/2000/svg" width="620" height="300"><rect width="100%" height="100%" fill="white"/><text x="20" y="35" font-size="14">ruins_1</text>
<polygon points="130,215.0 142,221.0 130,227.0 118,221.0" fill="#aac5e4" stroke="#34495e" stroke-width="0.2"><title>betterend:lucernia_log (1,0,1)</title></polygon>
<polygon points="118,221.0 130,227.0 130,239.0 118,233.0" fill="#4e7099" stroke="#34495e" stroke-width="0.2"><title>betterend:lucernia_log (1,0,1)</title></polygon>
<polygon points="130,227.0 142,221.0 142,233.0 130,239.0" fill="#7595ba" stroke="#34495e" stroke-width="0.2"><title>betterend:lucernia_log (1,0,1)</title></polygon>
<polygon points="118,197.0 130,203.0 118,209.0 106,203.0" fill="#aac5e4" stroke="#34495e" stroke-width="0.2"><title>betterend:aurant_polypore (0,1,1)</title></polygon>
<polygon points="106,203.0 118,209.0 118,221.0 106,215.0" fill="#4e7099" stroke="#34495e" stroke-width="0.2"><title>betterend:aurant_polypore (0,1,1)</title></polygon>
<polygon points="118,209.0 130,203.0 130,215.0 118,221.0" fill="#7595ba" stroke="#34495e" stroke-width="0.2"><title>betterend:aurant_polypore (0,1,1)</title></polygon>
<polygon points="118,221.0 130,227.0 118,233.0 106,227.0" fill="#aac5e4" stroke="#34495e" stroke-width="0.2"><title>betterend:lucernia_planks (1,0,2)</title></polygon>
<polygon points="106,227.0 118,233.0 118,245.0 106,239.0" fill="#4e7099" stroke="#34495e" stroke-width="0.2"><title>betterend:lucernia_planks (1,0,2)</title></polygon>
<polygon points="118,233.0 130,227.0 130,239.0 118,245.0" fill="#7595ba" stroke="#34495e" stroke-width="0.2"><title>betterend:lucernia_planks (1,0,2)</title></polygon>
<polygon points="142,221.0 154,227.0 142,233.0 130,227.0" fill="#aac5e4" stroke="#34495e" stroke-width="0.2"><title>betterend:lucernia_planks (2,0,1)</title></polygon>
<polygon points="130,227.0 142,233.0 142,245.0 130,239.0" fill="#4e7099" stroke="#34495e" stroke-width="0.2"><title>betterend:lucernia_planks (2,0,1)</title></polygon>
<polygon points="142,233.0 154,227.0 154,239.0 142,245.0" fill="#7595ba" stroke="#34495e" stroke-width="0.2"><title>betterend:lucernia_planks (2,0,1)</title></polygon>
<polygon points="130,203.0 142,209.0 130,215.0 118,209.0" fill="#aac5e4" stroke="#34495e" stroke-width="0.2"><title>betterend:lucernia_log (1,1,1)</title></polygon>
<polygon points="118,209.0 130,215.0 130,227.0 118,221.0" fill="#4e7099" stroke="#34495e" stroke-width="0.2"><title>betterend:lucernia_log (1,1,1)</title></polygon>
<polygon points="130,215.0 142,209.0 142,221.0 130,227.0" fill="#7595ba" stroke="#34495e" stroke-width="0.2"><title>betterend:lucernia_log (1,1,1)</title></polygon>
<polygon points="106,203.0 118,209.0 106,215.0 94,209.0" fill="#aac5e4" stroke="#34495e" stroke-width="0.2"><title>betterend:ruscus (0,1,2)</title></polygon>
<polygon points="94,209.0 106,215.0 106,227.0 94,221.0" fill="#4e7099" stroke="#34495e" stroke-width="0.2"><title>betterend:ruscus (0,1,2)</title></polygon>
<polygon points="106,215.0 118,209.0 118,221.0 106,227.0" fill="#7595ba" stroke="#34495e" stroke-width="0.2"><title>betterend:ruscus (0,1,2)</title></polygon>
<polygon points="142,185.0 154,191.0 142,197.0 130,191.0" fill="#aac5e4" stroke="#34495e" stroke-width="0.2"><title>betterend:aurant_polypore (1,2,0)</title></polygon>
<polygon points="130,191.0 142,197.0 142,209.0 130,203.0" fill="#4e7099" stroke="#34495e" stroke-width="0.2"><title>betterend:aurant_polypore (1,2,0)</title></polygon>
<polygon points="142,197.0 154,191.0 154,203.0 142,209.0" fill="#7595ba" stroke="#34495e" stroke-width="0.2"><title>betterend:aurant_polypore (1,2,0)</title></polygon>
<polygon points="106,227.0 118,233.0 106,239.0 94,233.0" fill="#aac5e4" stroke="#34495e" stroke-width="0.2"><title>betterend:lucernia_planks (1,0,3)</title></polygon>
<polygon points="94,233.0 106,239.0 106,251.0 94,245.0" fill="#4e7099" stroke="#34495e" stroke-width="0.2"><title>betterend:lucernia_planks (1,0,3)</title></polygon>
<polygon points="106,239.0 118,233.0 118,245.0 106,251.0" fill="#7595ba" stroke="#34495e" stroke-width="0.2"><title>betterend:lucernia_planks (1,0,3)</title></polygon>
<polygon points="130,227.0 142,233.0 130,239.0 118,233.0" fill="#aac5e4" stroke="#34495e" stroke-width="0.2"><title>betterend:lucernia_bookshelf (2,0,2)</title></polygon>
<polygon points="118,233.0 130,239.0 130,251.0 118,245.0" fill="#4e7099" stroke="#34495e" stroke-width="0.2"><title>betterend:lucernia_bookshelf (2,0,2)</title></polygon>
<polygon points="130,239.0 142,233.0 142,245.0 130,251.0" fill="#7595ba" stroke="#34495e" stroke-width="0.2"><title>betterend:lucernia_bookshelf (2,0,2)</title></polygon>
<polygon points="154,227.0 166,233.0 154,239.0 142,233.0" fill="#aac5e4" stroke="#34495e" stroke-width="0.2"><title>betterend:lucernia_planks (3,0,1)</title></polygon>
<polygon points="142,233.0 154,239.0 154,251.0 142,245.0" fill="#4e7099" stroke="#34495e" stroke-width="0.2"><title>betterend:lucernia_planks (3,0,1)</title></polygon>
<polygon points="154,239.0 166,233.0 166,245.0 154,251.0" fill="#7595ba" stroke="#34495e" stroke-width="0.2"><title>betterend:lucernia_planks (3,0,1)</title></polygon>
<polygon points="118,209.0 130,215.0 118,221.0 106,215.0" fill="#aac5e4" stroke="#34495e" stroke-width="0.2"><title>betterend:lucernia_planks (1,1,2)</title></polygon>
<polygon points="106,215.0 118,221.0 118,233.0 106,227.0" fill="#4e7099" stroke="#34495e" stroke-width="0.2"><title>betterend:lucernia_planks (1,1,2)</title></polygon>
<polygon points="118,221.0 130,215.0 130,227.0 118,233.0" fill="#7595ba" stroke="#34495e" stroke-width="0.2"><title>betterend:lucernia_planks (1,1,2)</title></polygon>
<polygon points="142,209.0 154,215.0 142,221.0 130,215.0" fill="#aac5e4" stroke="#34495e" stroke-width="0.2"><title>betterend:lucernia_planks (2,1,1)</title></polygon>
<polygon points="130,215.0 142,221.0 142,233.0 130,227.0" fill="#4e7099" stroke="#34495e" stroke-width="0.2"><title>betterend:lucernia_planks (2,1,1)</title></polygon>
<polygon points="142,221.0 154,215.0 154,227.0 142,233.0" fill="#7595ba" stroke="#34495e" stroke-width="0.2"><title>betterend:lucernia_planks (2,1,1)</title></polygon>
<polygon points="130,191.0 142,197.0 130,203.0 118,197.0" fill="#aac5e4" stroke="#34495e" stroke-width="0.2"><title>betterend:lucernia_log (1,2,1)</title></polygon>
<polygon points="118,197.0 130,203.0 130,215.0 118,209.0" fill="#4e7099" stroke="#34495e" stroke-width="0.2"><title>betterend:lucernia_log (1,2,1)</title></polygon>
<polygon points="130,203.0 142,197.0 142,209.0 130,215.0" fill="#7595ba" stroke="#34495e" stroke-width="0.2"><title>betterend:lucernia_log (1,2,1)</title></polygon>
<polygon points="166,233.0 178,239.0 166,245.0 154,239.0" fill="#aac5e4" stroke="#34495e" stroke-width="0.2"><title>betterend:lucernia_planks (4,0,1)</title></polygon>
<polygon points="154,239.0 166,245.0 166,257.0 154,251.0" fill="#4e7099" stroke="#34495e" stroke-width="0.2"><title>betterend:lucernia_planks (4,0,1)</title></polygon>
<polygon points="166,245.0 178,239.0 178,251.0 166,257.0" fill="#7595ba" stroke="#34495e" stroke-width="0.2"><title>betterend:lucernia_planks (4,0,1)</title></polygon>
<polygon points="94,233.0 106,239.0 94,245.0 82,239.0" fill="#aac5e4" stroke="#34495e" stroke-width="0.2"><title>betterend:ruscus (1,0,4)</title></polygon>
<polygon points="82,239.0 94,245.0 94,257.0 82,251.0" fill="#4e7099" stroke="#34495e" stroke-width="0.2"><title>betterend:ruscus (1,0,4)</title></polygon>
<polygon points="94,245.0 106,239.0 106,251.0 94,257.0" fill="#7595ba" stroke="#34495e" stroke-width="0.2"><title>betterend:ruscus (1,0,4)</title></polygon>
<polygon points="118,233.0 130,239.0 118,245.0 106,239.0" fill="#81a98b" stroke="#34495e" stroke-width="0.2"><title>betterend:lucernia_outer_leaves (2,0,3)</title></polygon>
<polygon points="106,239.0 118,245.0 118,257.0 106,251.0" fill="#486c51" stroke="#34495e" stroke-width="0.2"><title>betterend:lucernia_outer_leaves (2,0,3)</title></polygon>
<polygon points="118,245.0 130,239.0 130,251.0 118,257.0" fill="#608169" stroke="#34495e" stroke-width="0.2"><title>betterend:lucernia_outer_leaves (2,0,3)</title></polygon>
<polygon points="142,233.0 154,239.0 142,245.0 130,239.0" fill="#aac5e4" stroke="#34495e" stroke-width="0.2"><title>betterend:lucernia_barrel (3,0,2)</title></polygon>
<polygon points="130,239.0 142,245.0 142,257.0 130,251.0" fill="#4e7099" stroke="#34495e" stroke-width="0.2"><title>betterend:lucernia_barrel (3,0,2)</title></polygon>
<polygon points="142,245.0 154,239.0 154,251.0 142,257.0" fill="#7595ba" stroke="#34495e" stroke-width="0.2"><title>betterend:lucernia_barrel (3,0,2)</title></polygon>
<polygon points="106,215.0 118,221.0 106,227.0 94,221.0" fill="#aac5e4" stroke="#34495e" stroke-width="0.2"><title>betterend:aurant_polypore (1,1,3)</title></polygon>
<polygon points="94,221.0 106,227.0 106,239.0 94,233.0" fill="#4e7099" stroke="#34495e" stroke-width="0.2"><title>betterend:aurant_polypore (1,1,3)</title></polygon>
<polygon points="106,227.0 118,221.0 118,233.0 106,239.0" fill="#7595ba" stroke="#34495e" stroke-width="0.2"><title>betterend:aurant_polypore (1,1,3)</title></polygon>
<polygon points="154,215.0 166,221.0 154,227.0 142,221.0" fill="#aac5e4" stroke="#34495e" stroke-width="0.2"><title>betterend:ruscus (3,1,1)</title></polygon>
<polygon points="142,221.0 154,227.0 154,239.0 142,233.0" fill="#4e7099" stroke="#34495e" stroke-width="0.2"><title>betterend:ruscus (3,1,1)</title></polygon>
<polygon points="154,227.0 166,221.0 166,233.0 154,239.0" fill="#7595ba" stroke="#34495e" stroke-width="0.2"><title>betterend:ruscus (3,1,1)</title></polygon>
<polygon points="130,215.0 142,221.0 130,227.0 118,221.0" fill="#aac5e4" stroke="#34495e" stroke-width="0.2"><title>betterend:lucernia_barrel (2,1,2)</title></polygon>
<polygon points="118,221.0 130,227.0 130,239.0 118,233.0" fill="#4e7099" stroke="#34495e" stroke-width="0.2"><title>betterend:lucernia_barrel (2,1,2)</title></polygon>
<polygon points="130,227.0 142,221.0 142,233.0 130,239.0" fill="#7595ba" stroke="#34495e" stroke-width="0.2"><title>betterend:lucernia_barrel (2,1,2)</title></polygon>
<polygon points="118,197.0 130,203.0 118,209.0 106,203.0" fill="#aac5e4" stroke="#34495e" stroke-width="0.2"><title>betterend:flavolite_lantern (1,2,2)</title></polygon>
<polygon points="106,203.0 118,209.0 118,221.0 106,215.0" fill="#4e7099" stroke="#34495e" stroke-width="0.2"><title>betterend:flavolite_lantern (1,2,2)</title></polygon>
<polygon points="118,209.0 130,203.0 130,215.0 118,221.0" fill="#7595ba" stroke="#34495e" stroke-width="0.2"><title>betterend:flavolite_lantern (1,2,2)</title></polygon>
<polygon points="142,197.0 154,203.0 142,209.0 130,203.0" fill="#aac5e4" stroke="#34495e" stroke-width="0.2"><title>betterend:aurant_polypore (2,2,1)</title></polygon>
<polygon points="130,203.0 142,209.0 142,221.0 130,215.0" fill="#4e7099" stroke="#34495e" stroke-width="0.2"><title>betterend:aurant_polypore (2,2,1)</title></polygon>
<polygon points="142,209.0 154,203.0 154,215.0 142,221.0" fill="#7595ba" stroke="#34495e" stroke-width="0.2"><title>betterend:aurant_polypore (2,2,1)</title></polygon>
<polygon points="82,239.0 94,245.0 82,251.0 70,245.0" fill="#aac5e4" stroke="#34495e" stroke-width="0.2"><title>betterend:lucernia_log (1,0,5)</title></polygon>
<polygon points="70,245.0 82,251.0 82,263.0 70,257.0" fill="#4e7099" stroke="#34495e" stroke-width="0.2"><title>betterend:lucernia_log (1,0,5)</title></polygon>
<polygon points="82,251.0 94,245.0 94,257.0 82,263.0" fill="#7595ba" stroke="#34495e" stroke-width="0.2"><title>betterend:lucernia_log (1,0,5)</title></polygon>
<polygon points="106,239.0 118,245.0 106,251.0 94,245.0" fill="#81a98b" stroke="#34495e" stroke-width="0.2"><title>betterend:lucernia_leaves (2,0,4)</title></polygon>
<polygon points="94,245.0 106,251.0 106,263.0 94,257.0" fill="#486c51" stroke="#34495e" stroke-width="0.2"><title>betterend:lucernia_leaves (2,0,4)</title></polygon>
<polygon points="106,251.0 118,245.0 118,257.0 106,263.0" fill="#608169" stroke="#34495e" stroke-width="0.2"><title>betterend:lucernia_leaves (2,0,4)</title></polygon>
<polygon points="178,239.0 190,245.0 178,251.0 166,245.0" fill="#aac5e4" stroke="#34495e" stroke-width="0.2"><title>betterend:lucernia_planks (5,0,1)</title></polygon>
<polygon points="166,245.0 178,251.0 178,263.0 166,257.0" fill="#4e7099" stroke="#34495e" stroke-width="0.2"><title>betterend:lucernia_planks (5,0,1)</title></polygon>
<polygon points="178,251.0 190,245.0 190,257.0 178,263.0" fill="#7595ba" stroke="#34495e" stroke-width="0.2"><title>betterend:lucernia_planks (5,0,1)</title></polygon>
<polygon points="70,221.0 82,227.0 70,233.0 58,227.0" fill="#aac5e4" stroke="#34495e" stroke-width="0.2"><title>betterend:aurant_polypore (0,1,5)</title></polygon>
<polygon points="58,227.0 70,233.0 70,245.0 58,239.0" fill="#4e7099" stroke="#34495e" stroke-width="0.2"><title>betterend:aurant_polypore (0,1,5)</title></polygon>
<polygon points="70,233.0 82,227.0 82,239.0 70,245.0" fill="#7595ba" stroke="#34495e" stroke-width="0.2"><title>betterend:aurant_polypore (0,1,5)</title></polygon>
<polygon points="94,245.0 106,251.0 94,257.0 82,251.0" fill="#81a98b" stroke="#34495e" stroke-width="0.2"><title>betterend:lucernia_leaves (2,0,5)</title></polygon>
<polygon points="82,251.0 94,257.0 94,269.0 82,263.0" fill="#486c51" stroke="#34495e" stroke-width="0.2"><title>betterend:lucernia_leaves (2,0,5)</title></polygon>
<polygon points="94,257.0 106,251.0 106,263.0 94,269.0" fill="#608169" stroke="#34495e" stroke-width="0.2"><title>betterend:lucernia_leaves (2,0,5)</title></polygon>
<polygon points="118,245.0 130,251.0 118,257.0 106,251.0" fill="#81a98b" stroke="#34495e" stroke-width="0.2"><title>betterend:lucernia_leaves (3,0,4)</title></polygon>
<polygon points="106,251.0 118,257.0 118,269.0 106,263.0" fill="#486c51" stroke="#34495e" stroke-width="0.2"><title>betterend:lucernia_leaves (3,0,4)</title></polygon>
<polygon points="118,257.0 130,251.0 130,263.0 118,269.0" fill="#608169" stroke="#34495e" stroke-width="0.2"><title>betterend:lucernia_leaves (3,0,4)</title></polygon>
<polygon points="190,245.0 202,251.0 190,257.0 178,251.0" fill="#aac5e4" stroke="#34495e" stroke-width="0.2"><title>betterend:lucernia_log (6,0,1)</title></polygon>
<polygon points="178,251.0 190,257.0 190,269.0 178,263.0" fill="#4e7099" stroke="#34495e" stroke-width="0.2"><title>betterend:lucernia_log (6,0,1)</title></polygon>
<polygon points="190,257.0 202,251.0 202,263.0 190,269.0" fill="#7595ba" stroke="#34495e" stroke-width="0.2"><title>betterend:lucernia_log (6,0,1)</title></polygon>
<polygon points="82,227.0 94,233.0 82,239.0 70,233.0" fill="#aac5e4" stroke="#34495e" stroke-width="0.2"><title>betterend:lucernia_log (1,1,5)</title></polygon>
<polygon points="70,233.0 82,239.0 82,251.0 70,245.0" fill="#4e7099" stroke="#34495e" stroke-width="0.2"><title>betterend:lucernia_log (1,1,5)</title></polygon>
<polygon points="82,239.0 94,233.0 94,245.0 82,251.0" fill="#7595ba" stroke="#34495e" stroke-width="0.2"><title>betterend:lucernia_log (1,1,5)</title></polygon>
<polygon points="178,227.0 190,233.0 178,239.0 166,233.0" fill="#aac5e4" stroke="#34495e" stroke-width="0.2"><title>betterend:lucernia_planks (5,1,1)</title></polygon>
<polygon points="166,233.0 178,239.0 178,251.0 166,245.0" fill="#4e7099" stroke="#34495e" stroke-width="0.2"><title>betterend:lucernia_planks (5,1,1)</title></polygon>
<polygon points="178,239.0 190,233.0 190,245.0 178,251.0" fill="#7595ba" stroke="#34495e" stroke-width="0.2"><title>betterend:lucernia_planks (5,1,1)</title></polygon>
<polygon points="106,227.0 118,233.0 106,239.0 94,233.0" fill="#81a98b" stroke="#34495e" stroke-width="0.2"><title>betterend:lucernia_outer_leaves (2,1,4)</title></polygon>
<polygon points="94,233.0 106,239.0 106,251.0 94,245.0" fill="#486c51" stroke="#34495e" stroke-width="0.2"><title>betterend:lucernia_outer_leaves (2,1,4)</title></polygon>
<polygon points="106,239.0 118,233.0 118,245.0 106,251.0" fill="#608169" stroke="#34495e" stroke-width="0.2"><title>betterend:lucernia_outer_leaves (2,1,4)</title></polygon>
<polygon points="82,251.0 94,257.0 82,263.0 70,257.0" fill="#81a98b" stroke="#34495e" stroke-width="0.2"><title>betterend:lucernia_outer_leaves (2,0,6)</title></polygon>
<polygon points="70,257.0 82,263.0 82,275.0 70,269.0" fill="#486c51" stroke="#34495e" stroke-width="0.2"><title>betterend:lucernia_outer_leaves (2,0,6)</title></polygon>
<polygon points="82,263.0 94,257.0 94,269.0 82,275.0" fill="#608169" stroke="#34495e" stroke-width="0.2"><title>betterend:lucernia_outer_leaves (2,0,6)</title></polygon>
<polygon points="106,251.0 118,257.0 106,263.0 94,257.0" fill="#81a98b" stroke="#34495e" stroke-width="0.2"><title>betterend:lucernia_outer_leaves (3,0,5)</title></polygon>
<polygon points="94,257.0 106,263.0 106,275.0 94,269.0" fill="#486c51" stroke="#34495e" stroke-width="0.2"><title>betterend:lucernia_outer_leaves (3,0,5)</title></polygon>
<polygon points="106,263.0 118,257.0 118,269.0 106,275.0" fill="#608169" stroke="#34495e" stroke-width="0.2"><title>betterend:lucernia_outer_leaves (3,0,5)</title></polygon>
<polygon points="130,251.0 142,257.0 130,263.0 118,257.0" fill="#81a98b" stroke="#34495e" stroke-width="0.2"><title>betterend:lucernia_outer_leaves (4,0,4)</title></polygon>
<polygon points="118,257.0 130,263.0 130,275.0 118,269.0" fill="#486c51" stroke="#34495e" stroke-width="0.2"><title>betterend:lucernia_outer_leaves (4,0,4)</title></polygon>
<polygon points="130,263.0 142,257.0 142,269.0 130,275.0" fill="#608169" stroke="#34495e" stroke-width="0.2"><title>betterend:lucernia_outer_leaves (4,0,4)</title></polygon>
<polygon points="178,251.0 190,257.0 178,263.0 166,257.0" fill="#aac5e4" stroke="#34495e" stroke-width="0.2"><title>betterend:ruscus (6,0,2)</title></polygon>
<polygon points="166,257.0 178,263.0 178,275.0 166,269.0" fill="#4e7099" stroke="#34495e" stroke-width="0.2"><title>betterend:ruscus (6,0,2)</title></polygon>
<polygon points="178,263.0 190,257.0 190,269.0 178,275.0" fill="#7595ba" stroke="#34495e" stroke-width="0.2"><title>betterend:ruscus (6,0,2)</title></polygon>
<polygon points="190,233.0 202,239.0 190,245.0 178,239.0" fill="#aac5e4" stroke="#34495e" stroke-width="0.2"><title>betterend:lucernia_log (6,1,1)</title></polygon>
<polygon points="178,239.0 190,245.0 190,257.0 178,251.0" fill="#4e7099" stroke="#34495e" stroke-width="0.2"><title>betterend:lucernia_log (6,1,1)</title></polygon>
<polygon points="190,245.0 202,239.0 202,251.0 190,257.0" fill="#7595ba" stroke="#34495e" stroke-width="0.2"><title>betterend:lucernia_log (6,1,1)</title></polygon>
<polygon points="94,233.0 106,239.0 94,245.0 82,239.0" fill="#81a98b" stroke="#34495e" stroke-width="0.2"><title>betterend:lucernia_outer_leaves (2,1,5)</title></polygon>
<polygon points="82,239.0 94,245.0 94,257.0 82,251.0" fill="#486c51" stroke="#34495e" stroke-width="0.2"><title>betterend:lucernia_outer_leaves (2,1,5)</title></polygon>
<polygon points="94,245.0 106,239.0 106,251.0 94,257.0" fill="#608169" stroke="#34495e" stroke-width="0.2"><title>betterend:lucernia_outer_leaves (2,1,5)</title></polygon>
<polygon points="118,233.0 130,239.0 118,245.0 106,239.0" fill="#81a98b" stroke="#34495e" stroke-width="0.2"><title>betterend:lucernia_outer_leaves (3,1,4)</title></polygon>
<polygon points="106,239.0 118,245.0 118,257.0 106,251.0" fill="#486c51" stroke="#34495e" stroke-width="0.2"><title>betterend:lucernia_outer_leaves (3,1,4)</title></polygon>
<polygon points="118,245.0 130,239.0 130,251.0 118,257.0" fill="#608169" stroke="#34495e" stroke-width="0.2"><title>betterend:lucernia_outer_leaves (3,1,4)</title></polygon>
<polygon points="178,239.0 190,245.0 178,251.0 166,245.0" fill="#aac5e4" stroke="#34495e" stroke-width="0.2"><title>betterend:aurant_polypore (6,1,2)</title></polygon>
<polygon points="166,245.0 178,251.0 178,263.0 166,257.0" fill="#4e7099" stroke="#34495e" stroke-width="0.2"><title>betterend:aurant_polypore (6,1,2)</title></polygon>
<polygon points="178,251.0 190,245.0 190,257.0 178,263.0" fill="#7595ba" stroke="#34495e" stroke-width="0.2"><title>betterend:aurant_polypore (6,1,2)</title></polygon>
<polygon points="202,239.0 214,245.0 202,251.0 190,245.0" fill="#aac5e4" stroke="#34495e" stroke-width="0.2"><title>betterend:ruscus (7,1,1)</title></polygon>
<polygon points="190,245.0 202,251.0 202,263.0 190,257.0" fill="#4e7099" stroke="#34495e" stroke-width="0.2"><title>betterend:ruscus (7,1,1)</title></polygon>
<polygon points="202,251.0 214,245.0 214,257.0 202,263.0" fill="#7595ba" stroke="#34495e" stroke-width="0.2"><title>betterend:ruscus (7,1,1)</title></polygon>
<polygon points="190,221.0 202,227.0 190,233.0 178,227.0" fill="#aac5e4" stroke="#34495e" stroke-width="0.2"><title>betterend:lucernia_log (6,2,1)</title></polygon>
<polygon points="178,227.0 190,233.0 190,245.0 178,239.0" fill="#4e7099" stroke="#34495e" stroke-width="0.2"><title>betterend:lucernia_log (6,2,1)</title></polygon>
<polygon points="190,233.0 202,227.0 202,239.0 190,245.0" fill="#7595ba" stroke="#34495e" stroke-width="0.2"><title>betterend:lucernia_log (6,2,1)</title></polygon>
<polygon points="202,227.0 214,233.0 202,239.0 190,233.0" fill="#aac5e4" stroke="#34495e" stroke-width="0.2"><title>betterend:aurant_polypore (7,2,1)</title></polygon>
<polygon points="190,233.0 202,239.0 202,251.0 190,245.0" fill="#4e7099" stroke="#34495e" stroke-width="0.2"><title>betterend:aurant_polypore (7,2,1)</title></polygon>
<polygon points="202,239.0 214,233.0 214,245.0 202,251.0" fill="#7595ba" stroke="#34495e" stroke-width="0.2"><title>betterend:aurant_polypore (7,2,1)</title></polygon>
<text x="320" y="35" font-size="14">ruins_2</text>
<polygon points="406,215.0 418,221.0 406,227.0 394,221.0" fill="#81a98b" stroke="#34495e" stroke-width="0.2"><title>betterend:lucernia_outer_leaves (0,0,2)</title></polygon>
<polygon points="394,221.0 406,227.0 406,239.0 394,233.0" fill="#486c51" stroke="#34495e" stroke-width="0.2"><title>betterend:lucernia_outer_leaves (0,0,2)</title></polygon>
<polygon points="406,227.0 418,221.0 418,233.0 406,239.0" fill="#608169" stroke="#34495e" stroke-width="0.2"><title>betterend:lucernia_outer_leaves (0,0,2)</title></polygon>
<polygon points="430,215.0 442,221.0 430,227.0 418,221.0" fill="#81a98b" stroke="#34495e" stroke-width="0.2"><title>betterend:lucernia_outer_leaves (1,0,1)</title></polygon>
<polygon points="418,221.0 430,227.0 430,239.0 418,233.0" fill="#486c51" stroke="#34495e" stroke-width="0.2"><title>betterend:lucernia_outer_leaves (1,0,1)</title></polygon>
<polygon points="430,227.0 442,221.0 442,233.0 430,239.0" fill="#608169" stroke="#34495e" stroke-width="0.2"><title>betterend:lucernia_outer_leaves (1,0,1)</title></polygon>
<polygon points="454,215.0 466,221.0 454,227.0 442,221.0" fill="#81a98b" stroke="#34495e" stroke-width="0.2"><title>betterend:lucernia_outer_leaves (2,0,0)</title></polygon>
<polygon points="442,221.0 454,227.0 454,239.0 442,233.0" fill="#486c51" stroke="#34495e" stroke-width="0.2"><title>betterend:lucernia_outer_leaves (2,0,0)</title></polygon>
<polygon points="454,227.0 466,221.0 466,233.0 454,239.0" fill="#608169" stroke="#34495e" stroke-width="0.2"><title>betterend:lucernia_outer_leaves (2,0,0)</title></polygon>
<polygon points="418,221.0 430,227.0 418,233.0 406,227.0" fill="#81a98b" stroke="#34495e" stroke-width="0.2"><title>betterend:lucernia_leaves (1,0,2)</title></polygon>
<polygon points="406,227.0 418,233.0 418,245.0 406,239.0" fill="#486c51" stroke="#34495e" stroke-width="0.2"><title>betterend:lucernia_leaves (1,0,2)</title></polygon>
<polygon points="418,233.0 430,227.0 430,239.0 418,245.0" fill="#608169" stroke="#34495e" stroke-width="0.2"><title>betterend:lucernia_leaves (1,0,2)</title></polygon>
<polygon points="442,221.0 454,227.0 442,233.0 430,227.0" fill="#81a98b" stroke="#34495e" stroke-width="0.2"><title>betterend:lucernia_leaves (2,0,1)</title></polygon>
<polygon points="430,227.0 442,233.0 442,245.0 430,239.0" fill="#486c51" stroke="#34495e" stroke-width="0.2"><title>betterend:lucernia_leaves (2,0,1)</title></polygon>
<polygon points="442,233.0 454,227.0 454,239.0 442,245.0" fill="#608169" stroke="#34495e" stroke-width="0.2"><title>betterend:lucernia_leaves (2,0,1)</title></polygon>
<polygon points="430,203.0 442,209.0 430,215.0 418,209.0" fill="#81a98b" stroke="#34495e" stroke-width="0.2"><title>betterend:lucernia_outer_leaves (1,1,1)</title></polygon>
<polygon points="418,209.0 430,215.0 430,227.0 418,221.0" fill="#486c51" stroke="#34495e" stroke-width="0.2"><title>betterend:lucernia_outer_leaves (1,1,1)</title></polygon>
<polygon points="430,215.0 442,209.0 442,221.0 430,227.0" fill="#608169" stroke="#34495e" stroke-width="0.2"><title>betterend:lucernia_outer_leaves (1,1,1)</title></polygon>
<polygon points="454,203.0 466,209.0 454,215.0 442,209.0" fill="#81a98b" stroke="#34495e" stroke-width="0.2"><title>betterend:lucernia_outer_leaves (2,1,0)</title></polygon>
<polygon points="442,209.0 454,215.0 454,227.0 442,221.0" fill="#486c51" stroke="#34495e" stroke-width="0.2"><title>betterend:lucernia_outer_leaves (2,1,0)</title></polygon>
<polygon points="454,215.0 466,209.0 466,221.0 454,227.0" fill="#608169" stroke="#34495e" stroke-width="0.2"><title>betterend:lucernia_outer_leaves (2,1,0)</title></polygon>
<polygon points="430,227.0 442,233.0 430,239.0 418,233.0" fill="#aac5e4" stroke="#34495e" stroke-width="0.2"><title>betterend:lucernia_log (2,0,2)</title></polygon>
<polygon points="418,233.0 430,239.0 430,251.0 418,245.0" fill="#4e7099" stroke="#34495e" stroke-width="0.2"><title>betterend:lucernia_log (2,0,2)</title></polygon>
<polygon points="430,239.0 442,233.0 442,245.0 430,251.0" fill="#7595ba" stroke="#34495e" stroke-width="0.2"><title>betterend:lucernia_log (2,0,2)</title></polygon>
<polygon points="406,227.0 418,233.0 406,239.0 394,233.0" fill="#81a98b" stroke="#34495e" stroke-width="0.2"><title>betterend:lucernia_outer_leaves (1,0,3)</title></polygon>
<polygon points="394,233.0 406,239.0 406,251.0 394,245.0" fill="#486c51" stroke="#34495e" stroke-width="0.2"><title>betterend:lucernia_outer_leaves (1,0,3)</title></polygon>
<polygon points="406,239.0 418,233.0 418,245.0 406,251.0" fill="#608169" stroke="#34495e" stroke-width="0.2"><title>betterend:lucernia_outer_leaves (1,0,3)</title></polygon>
<polygon points="454,227.0 466,233.0 454,239.0 442,233.0" fill="#81a98b" stroke="#34495e" stroke-width="0.2"><title>betterend:lucernia_outer_leaves (3,0,1)</title></polygon>
<polygon points="442,233.0 454,239.0 454,251.0 442,245.0" fill="#486c51" stroke="#34495e" stroke-width="0.2"><title>betterend:lucernia_outer_leaves (3,0,1)</title></polygon>
<polygon points="454,239.0 466,233.0 466,245.0 454,251.0" fill="#608169" stroke="#34495e" stroke-width="0.2"><title>betterend:lucernia_outer_leaves (3,0,1)</title></polygon>
<polygon points="442,209.0 454,215.0 442,221.0 430,215.0" fill="#81a98b" stroke="#34495e" stroke-width="0.2"><title>betterend:lucernia_leaves (2,1,1)</title></polygon>
<polygon points="430,215.0 442,221.0 442,233.0 430,227.0" fill="#486c51" stroke="#34495e" stroke-width="0.2"><title>betterend:lucernia_leaves (2,1,1)</title></polygon>
<polygon points="442,221.0 454,215.0 454,227.0 442,233.0" fill="#608169" stroke="#34495e" stroke-width="0.2"><title>betterend:lucernia_leaves (2,1,1)</title></polygon>
<polygon points="418,209.0 430,215.0 418,221.0 406,215.0" fill="#81a98b" stroke="#34495e" stroke-width="0.2"><title>betterend:lucernia_outer_leaves (1,1,2)</title></polygon>
<polygon points="406,215.0 418,221.0 418,233.0 406,227.0" fill="#486c51" stroke="#34495e" stroke-width="0.2"><title>betterend:lucernia_outer_leaves (1,1,2)</title></polygon>
<polygon points="418,221.0 430,215.0 430,227.0 418,233.0" fill="#608169" stroke="#34495e" stroke-width="0.2"><title>betterend:lucernia_outer_leaves (1,1,2)</title></polygon>
<polygon points="418,233.0 430,239.0 418,245.0 406,239.0" fill="#aac5e4" stroke="#34495e" stroke-width="0.2"><title>betterend:lucernia_stairs (2,0,3)</title></polygon>
<polygon points="406,239.0 418,245.0 418,257.0 406,251.0" fill="#4e7099" stroke="#34495e" stroke-width="0.2"><title>betterend:lucernia_stairs (2,0,3)</title></polygon>
<polygon points="418,245.0 430,239.0 430,251.0 418,257.0" fill="#7595ba" stroke="#34495e" stroke-width="0.2"><title>betterend:lucernia_stairs (2,0,3)</title></polygon>
<polygon points="442,233.0 454,239.0 442,245.0 430,239.0" fill="#aac5e4" stroke="#34495e" stroke-width="0.2"><title>betterend:ruscus (3,0,2)</title></polygon>
<polygon points="430,239.0 442,245.0 442,257.0 430,251.0" fill="#4e7099" stroke="#34495e" stroke-width="0.2"><title>betterend:ruscus (3,0,2)</title></polygon>
<polygon points="442,245.0 454,239.0 454,251.0 442,257.0" fill="#7595ba" stroke="#34495e" stroke-width="0.2"><title>betterend:ruscus (3,0,2)</title></polygon>
<polygon points="430,215.0 442,221.0 430,227.0 418,221.0" fill="#aac5e4" stroke="#34495e" stroke-width="0.2"><title>betterend:lucernia_log (2,1,2)</title></polygon>
<polygon points="418,221.0 430,227.0 430,239.0 418,233.0" fill="#4e7099" stroke="#34495e" stroke-width="0.2"><title>betterend:lucernia_log (2,1,2)</title></polygon>
<polygon points="430,227.0 442,221.0 442,233.0 430,239.0" fill="#7595ba" stroke="#34495e" stroke-width="0.2"><title>betterend:lucernia_log (2,1,2)</title></polygon>
<polygon points="454,215.0 466,221.0 454,227.0 442,221.0" fill="#81a98b" stroke="#34495e" stroke-width="0.2"><title>betterend:lucernia_outer_leaves (3,1,1)</title></polygon>
<polygon points="442,221.0 454,227.0 454,239.0 442,233.0" fill="#486c51" stroke="#34495e" stroke-width="0.2"><title>betterend:lucernia_outer_leaves (3,1,1)</title></polygon>
<polygon points="454,227.0 466,221.0 466,233.0 454,239.0" fill="#608169" stroke="#34495e" stroke-width="0.2"><title>betterend:lucernia_outer_leaves (3,1,1)</title></polygon>
<polygon points="418,197.0 430,203.0 418,209.0 406,203.0" fill="#aac5e4" stroke="#34495e" stroke-width="0.2"><title>betterend:lucernia_trapdoor (1,2,2)</title></polygon>
<polygon points="406,203.0 418,209.0 418,221.0 406,215.0" fill="#4e7099" stroke="#34495e" stroke-width="0.2"><title>betterend:lucernia_trapdoor (1,2,2)</title></polygon>
<polygon points="418,209.0 430,203.0 430,215.0 418,221.0" fill="#7595ba" stroke="#34495e" stroke-width="0.2"><title>betterend:lucernia_trapdoor (1,2,2)</title></polygon>
<polygon points="442,197.0 454,203.0 442,209.0 430,203.0" fill="#aac5e4" stroke="#34495e" stroke-width="0.2"><title>betterend:lucernia_trapdoor (2,2,1)</title></polygon>
<polygon points="430,203.0 442,209.0 442,221.0 430,215.0" fill="#4e7099" stroke="#34495e" stroke-width="0.2"><title>betterend:lucernia_trapdoor (2,2,1)</title></polygon>
<polygon points="442,209.0 454,203.0 454,215.0 442,221.0" fill="#7595ba" stroke="#34495e" stroke-width="0.2"><title>betterend:lucernia_trapdoor (2,2,1)</title></polygon>
<polygon points="418,221.0 430,227.0 418,233.0 406,227.0" fill="#aac5e4" stroke="#34495e" stroke-width="0.2"><title>betterend:ruscus (2,1,3)</title></polygon>
<polygon points="406,227.0 418,233.0 418,245.0 406,239.0" fill="#4e7099" stroke="#34495e" stroke-width="0.2"><title>betterend:ruscus (2,1,3)</title></polygon>
<polygon points="418,233.0 430,227.0 430,239.0 418,245.0" fill="#7595ba" stroke="#34495e" stroke-width="0.2"><title>betterend:ruscus (2,1,3)</title></polygon>
<polygon points="442,221.0 454,227.0 442,233.0 430,227.0" fill="#aac5e4" stroke="#34495e" stroke-width="0.2"><title>betterend:aurant_polypore (3,1,2)</title></polygon>
<polygon points="430,227.0 442,233.0 442,245.0 430,239.0" fill="#4e7099" stroke="#34495e" stroke-width="0.2"><title>betterend:aurant_polypore (3,1,2)</title></polygon>
<polygon points="442,233.0 454,227.0 454,239.0 442,245.0" fill="#7595ba" stroke="#34495e" stroke-width="0.2"><title>betterend:aurant_polypore (3,1,2)</title></polygon>
<polygon points="430,203.0 442,209.0 430,215.0 418,209.0" fill="#aac5e4" stroke="#34495e" stroke-width="0.2"><title>betterend:lucernia_log (2,2,2)</title></polygon>
<polygon points="418,209.0 430,215.0 430,227.0 418,221.0" fill="#4e7099" stroke="#34495e" stroke-width="0.2"><title>betterend:lucernia_log (2,2,2)</title></polygon>
<polygon points="430,215.0 442,209.0 442,221.0 430,227.0" fill="#7595ba" stroke="#34495e" stroke-width="0.2"><title>betterend:lucernia_log (2,2,2)</title></polygon>
<polygon points="418,185.0 430,191.0 418,197.0 406,191.0" fill="#aac5e4" stroke="#34495e" stroke-width="0.2"><title>betterend:lucernia_stairs (1,3,2)</title></polygon>
<polygon points="406,191.0 418,197.0 418,209.0 406,203.0" fill="#4e7099" stroke="#34495e" stroke-width="0.2"><title>betterend:lucernia_stairs (1,3,2)</title></polygon>
<polygon points="418,197.0 430,191.0 430,203.0 418,209.0" fill="#7595ba" stroke="#34495e" stroke-width="0.2"><title>betterend:lucernia_stairs (1,3,2)</title></polygon>
<polygon points="442,185.0 454,191.0 442,197.0 430,191.0" fill="#aac5e4" stroke="#34495e" stroke-width="0.2"><title>betterend:lucernia_stairs (2,3,1)</title></polygon>
<polygon points="430,191.0 442,197.0 442,209.0 430,203.0" fill="#4e7099" stroke="#34495e" stroke-width="0.2"><title>betterend:lucernia_stairs (2,3,1)</title></polygon>
<polygon points="442,197.0 454,191.0 454,203.0 442,209.0" fill="#7595ba" stroke="#34495e" stroke-width="0.2"><title>betterend:lucernia_stairs (2,3,1)</title></polygon>
<polygon points="418,209.0 430,215.0 418,221.0 406,215.0" fill="#aac5e4" stroke="#34495e" stroke-width="0.2"><title>betterend:lucernia_trapdoor (2,2,3)</title></polygon>
<polygon points="406,215.0 418,221.0 418,233.0 406,227.0" fill="#4e7099" stroke="#34495e" stroke-width="0.2"><title>betterend:lucernia_trapdoor (2,2,3)</title></polygon>
<polygon points="418,221.0 430,215.0 430,227.0 418,233.0" fill="#7595ba" stroke="#34495e" stroke-width="0.2"><title>betterend:lucernia_trapdoor (2,2,3)</title></polygon>
<polygon points="442,209.0 454,215.0 442,221.0 430,215.0" fill="#aac5e4" stroke="#34495e" stroke-width="0.2"><title>betterend:lucernia_trapdoor (3,2,2)</title></polygon>
<polygon points="430,215.0 442,221.0 442,233.0 430,227.0" fill="#4e7099" stroke="#34495e" stroke-width="0.2"><title>betterend:lucernia_trapdoor (3,2,2)</title></polygon>
<polygon points="442,221.0 454,215.0 454,227.0 442,233.0" fill="#7595ba" stroke="#34495e" stroke-width="0.2"><title>betterend:lucernia_trapdoor (3,2,2)</title></polygon>
<polygon points="430,191.0 442,197.0 430,203.0 418,197.0" fill="#aac5e4" stroke="#34495e" stroke-width="0.2"><title>betterend:lucernia_stripped_log (2,3,2)</title></polygon>
<polygon points="418,197.0 430,203.0 430,215.0 418,209.0" fill="#4e7099" stroke="#34495e" stroke-width="0.2"><title>betterend:lucernia_stripped_log (2,3,2)</title></polygon>
<polygon points="430,203.0 442,197.0 442,209.0 430,215.0" fill="#7595ba" stroke="#34495e" stroke-width="0.2"><title>betterend:lucernia_stripped_log (2,3,2)</title></polygon>
<polygon points="418,197.0 430,203.0 418,209.0 406,203.0" fill="#aac5e4" stroke="#34495e" stroke-width="0.2"><title>betterend:aurant_polypore (2,3,3)</title></polygon>
<polygon points="406,203.0 418,209.0 418,221.0 406,215.0" fill="#4e7099" stroke="#34495e" stroke-width="0.2"><title>betterend:aurant_polypore (2,3,3)</title></polygon>
<polygon points="418,209.0 430,203.0 430,215.0 418,221.0" fill="#7595ba" stroke="#34495e" stroke-width="0.2"><title>betterend:aurant_polypore (2,3,3)</title></polygon>
<polygon points="442,197.0 454,203.0 442,209.0 430,203.0" fill="#aac5e4" stroke="#34495e" stroke-width="0.2"><title>betterend:lucernia_stairs (3,3,2)</title></polygon>
<polygon points="430,203.0 442,209.0 442,221.0 430,215.0" fill="#4e7099" stroke="#34495e" stroke-width="0.2"><title>betterend:lucernia_stairs (3,3,2)</title></polygon>
<polygon points="442,209.0 454,203.0 454,215.0 442,221.0" fill="#7595ba" stroke="#34495e" stroke-width="0.2"><title>betterend:lucernia_stairs (3,3,2)</title></polygon></svg>
